<?xml version="1.0" encoding="UTF-8"?>
<!DOCTYPE svg PUBLIC "-//W3C//DTD SVG 1.1//EN" "http://www.w3.org/Graphics/SVG/1.1/DTD/svg11.dtd">
<svg xmlns="http://www.w3.org/2000/svg" version="1.1" width="300px" height="300px" style="shape-rendering:geometricPrecision; text-rendering:geometricPrecision; image-rendering:optimizeQuality; fill-rule:evenodd; clip-rule:evenodd" xmlns:xlink="http://www.w3.org/1999/xlink">
<g><path style="opacity:0.992" fill="#0299e5" d="M 40.5,-0.5 C 50.8333,-0.5 61.1667,-0.5 71.5,-0.5C 71.3333,46.1679 71.5,92.8345 72,139.5C 92.3459,161.012 113.179,182.012 134.5,202.5C 89.5049,203.5 44.5049,203.833 -0.5,203.5C -0.5,149.167 -0.5,94.8333 -0.5,40.5C 4.82448,18.5089 18.4911,4.84219 40.5,-0.5 Z"/></g>
<g><path style="opacity:0.991" fill="#0299e5" d="M 121.5,-0.5 C 143.167,-0.5 164.833,-0.5 186.5,-0.5C 186.667,67.5008 186.5,135.501 186,203.5C 164.972,182.138 143.639,161.138 122,140.5C 121.5,93.5012 121.333,46.5012 121.5,-0.5 Z"/></g>
<g><path style="opacity:0.992" fill="#0299e5" d="M 236.5,-0.5 C 243.833,-0.5 251.167,-0.5 258.5,-0.5C 280.509,4.84219 294.176,18.5089 299.5,40.5C 299.5,113.167 299.5,185.833 299.5,258.5C 294.167,280.5 280.5,294.167 258.5,299.5C 185.833,299.5 113.167,299.5 40.5,299.5C 18.5,294.167 4.83333,280.5 -0.5,258.5C -0.5,256.833 -0.5,255.167 -0.5,253.5C 78.5,253.5 157.5,253.5 236.5,253.5C 236.5,168.833 236.5,84.1667 236.5,-0.5 Z"/></g>
</svg>
