<?xml version="1.0" standalone="no"?><!DOCTYPE svg PUBLIC "-//W3C//DTD SVG 1.1//EN" "http://www.w3.org/Graphics/SVG/1.1/DTD/svg11.dtd"><svg height="1024" node-id="1" sillyvg="true" template-height="1024" template-width="1024" version="1.1" viewBox="0 0 1024 1024" width="1024" xmlns="http://www.w3.org/2000/svg" xmlns:xlink="http://www.w3.org/1999/xlink"><defs node-id="78"><linearGradient gradientUnits="objectBoundingBox" id="linearGradient-1" node-id="5" spreadMethod="pad" x1="0.5" x2="0.5" y1="1" y2="-0.0000000000000002471453"><stop offset="0" stop-color="#ffffff" stop-opacity="0.1"></stop><stop offset="0.13" stop-color="#fbfdff" stop-opacity="0.19"></stop><stop offset="0.41" stop-color="#f1f7ff" stop-opacity="0.43"></stop><stop offset="0.81" stop-color="#e1eeff" stop-opacity="0.82"></stop><stop offset="1" stop-color="#d9e9ff"></stop></linearGradient><linearGradient gradientUnits="objectBoundingBox" id="linearGradient-2" node-id="11" spreadMethod="pad" x1="0.5" x2="0.5" y1="1.002219" y2="0.0007036488"><stop offset="0" stop-color="#ffffff" stop-opacity="0.1"></stop><stop offset="1" stop-color="#d9e9ff"></stop></linearGradient><linearGradient gradientUnits="objectBoundingBox" id="linearGradient-3" node-id="14" spreadMethod="pad" x1="0.500936" x2="0.500936" y1="1" y2="0.000069385685"><stop offset="0" stop-color="#ffffff" stop-opacity="0.1"></stop><stop offset="0.14" stop-color="#f8fbff" stop-opacity="0.27"></stop><stop offset="0.37" stop-color="#edf5ff" stop-opacity="0.52"></stop><stop offset="0.58" stop-color="#e4f0ff" stop-opacity="0.73"></stop><stop offset="0.76" stop-color="#deecff" stop-opacity="0.88"></stop><stop offset="0.91" stop-color="#daeaff" stop-opacity="0.97"></stop><stop offset="1" stop-color="#d9e9ff"></stop></linearGradient><linearGradient gradientUnits="objectBoundingBox" id="linearGradient-4" node-id="22" spreadMethod="pad" x1="0.49983978" x2="0.49983978" y1="0.999312" y2="-0.0008112773"><stop offset="0" stop-color="#ffffff" stop-opacity="0.1"></stop><stop offset="0.09" stop-color="#fefeff" stop-opacity="0.13"></stop><stop offset="0.23" stop-color="#fbfcff" stop-opacity="0.21"></stop><stop offset="0.4" stop-color="#f5f9ff" stop-opacity="0.33"></stop><stop offset="0.59" stop-color="#eef5ff" stop-opacity="0.51"></stop><stop offset="0.79" stop-color="#e4efff" stop-opacity="0.74"></stop><stop offset="1" stop-color="#d9e9ff"></stop></linearGradient><linearGradient gradientUnits="objectBoundingBox" id="linearGradient-5" node-id="30" spreadMethod="pad" x1="0.49999997" x2="0.49999997" y1="0" y2="0.99999994"><stop offset="0" stop-color="#5baafd"></stop><stop offset="1" stop-color="#aad2fe"></stop></linearGradient><linearGradient gradientUnits="objectBoundingBox" id="linearGradient-6" node-id="33" spreadMethod="pad" x1="0.49999997" x2="0.59065247" y1="0.14905335" y2="0.55333024"><stop offset="0" stop-color="#afd5fe"></stop><stop offset="1" stop-color="#3798fc"></stop></linearGradient><linearGradient gradientUnits="objectBoundingBox" id="linearGradient-7" node-id="36" spreadMethod="pad" x1="0.49999997" x2="0.49999997" y1="0" y2="0.99999994"><stop offset="0" stop-color="#4ba2fc"></stop><stop offset="1" stop-color="#f9fcff"></stop></linearGradient><linearGradient gradientUnits="objectBoundingBox" id="linearGradient-8" node-id="39" spreadMethod="pad" x1="0.49999997" x2="0.47684595" y1="0.48504913" y2="0.5424614"><stop offset="0" stop-color="#ffffff"></stop><stop offset="1" stop-color="#f7f7f7"></stop></linearGradient><linearGradient gradientUnits="objectBoundingBox" id="linearGradient-9" node-id="42" spreadMethod="pad" x1="0.49999997" x2="0.49999997" y1="0" y2="0.99999994"><stop offset="0" stop-color="#dbeaff"></stop><stop offset="1" stop-color="#fcfcfc" stop-opacity="0"></stop></linearGradient><linearGradient gradientUnits="objectBoundingBox" id="linearGradient-10" node-id="45" spreadMethod="pad" x1="0.49999997" x2="0.49999997" y1="0" y2="0.99999994"><stop offset="0" stop-color="#94c7fd"></stop><stop offset="1" stop-color="#4aa1fc"></stop></linearGradient><linearGradient gradientUnits="objectBoundingBox" id="linearGradient-11" node-id="48" spreadMethod="pad" x1="0.49999997" x2="0.49999997" y1="0" y2="0.99999994"><stop offset="0" stop-color="#9eccfd"></stop><stop offset="1" stop-color="#3798fc"></stop></linearGradient></defs><path d="M 0.00 0.00 L 1024.00 0.00 L 1024.00 1024.00 L 0.00 1024.00 Z" fill="#ffffff" fill-rule="evenodd" node-id="174" stroke="none" target-height="1024" target-width="1024" target-x="0" target-y="0"></path><g node-id="176"><path d="M 0.00 0.00 L 1024.00 0.00 L 1024.00 1024.00 L 0.00 1024.00 Z" fill="#d8d8d8" fill-opacity="0" fill-rule="nonzero" group-id="1" id="矩形" node-id="53" stroke="none" target-height="1024" target-width="1024" target-x="0" target-y="0"></path></g><path d="M 1023.00 740.00 C 1023.00 782.70 969.11 823.65 873.19 853.84 C 777.26 884.04 647.16 901.00 511.50 901.00 C 375.84 901.00 245.74 884.04 149.81 853.84 C 53.89 823.65 0.00 782.70 0.00 740.00 C 0.00 697.30 53.89 656.35 149.81 626.16 C 245.74 595.96 375.84 579.00 511.50 579.00 C 647.16 579.00 777.26 595.96 873.19 626.16 C 969.11 656.35 1023.00 697.30 1023.00 740.00 Z" fill="url(#linearGradient-1)" fill-rule="nonzero" id="椭圆形" node-id="54" stroke="none" target-height="322" target-width="1023" target-x="0" target-y="579"></path><path d="M 199.69 592.00 L 204.00 640.00 L 177.00 636.84 Z" fill="#e4efff" fill-rule="nonzero" id="路径" node-id="55" stroke="none" target-height="48" target-width="27" target-x="177" target-y="592"></path><path d="M 200.00 592.00 L 230.00 629.89 L 204.55 640.00 Z" fill="#f3f8ff" fill-rule="nonzero" id="路径" node-id="56" stroke="none" target-height="48" target-width="30" target-x="200" target-y="592"></path><path d="M 99.47 605.00 L 105.00 666.00 L 71.00 661.93 Z" fill="#e4efff" fill-rule="nonzero" id="路径" node-id="57" stroke="none" target-height="61" target-width="34" target-x="71" target-y="605"></path><path d="M 99.00 605.00 L 138.00 653.23 L 105.00 666.00 Z" fill="#f3f8ff" fill-rule="nonzero" id="路径" node-id="58" stroke="none" target-height="61" target-width="39" target-x="99" target-y="605"></path><path d="M 147.63 562.00 L 157.00 665.00 L 94.00 658.58 Z" fill="#e4efff" fill-rule="nonzero" id="路径" node-id="59" stroke="none" target-height="103" target-width="63" target-x="94" target-y="562"></path><path d="M 147.00 562.00 L 214.00 642.94 L 156.53 665.00 Z" fill="#f3f8ff" fill-rule="nonzero" id="路径" node-id="60" stroke="none" target-height="103" target-width="67" target-x="147" target-y="562"></path><path d="M 167.23 341.22 C 163.48 321.75 146.09 307.74 125.99 308.00 C 115.20 307.94 104.78 311.90 96.82 319.08 C 92.30 317.15 87.41 316.20 82.48 316.31 C 67.03 316.04 53.46 326.40 49.86 341.22 C 37.93 343.82 29.33 354.10 29.00 366.14 C 29.46 380.79 41.82 392.33 56.68 391.99 L 160.32 391.99 C 175.18 392.33 187.54 380.79 188.00 366.14 C 187.69 354.12 179.13 343.85 167.23 341.22 L 167.23 341.22 Z" fill="url(#linearGradient-2)" fill-rule="nonzero" id="路径" node-id="61" stroke="none" target-height="84.596985" target-width="159" target-x="29" target-y="307.73715"></path><path d="M 767.89 204.34 C 762.54 196.12 753.47 191.01 743.62 190.67 C 737.90 181.98 728.09 176.82 717.64 177.00 C 709.25 176.92 701.19 180.19 695.26 186.09 C 692.55 185.23 689.72 184.79 686.87 184.78 C 673.70 184.78 662.79 193.84 661.70 205.28 C 651.66 207.66 644.43 216.37 644.00 226.61 C 644.00 238.95 655.38 249.00 669.17 249.00 L 765.83 249.00 C 779.81 249.00 791.00 238.95 791.00 226.61 C 791.25 214.89 780.90 205.20 767.89 204.34 Z" fill="url(#linearGradient-3)" fill-rule="nonzero" id="路径" node-id="62" stroke="none" target-height="72.18361" target-width="147.2472" target-x="644" target-y="176.81639"></path><path d="M 948.38 171.74 C 938.85 152.17 918.95 139.71 897.10 139.64 C 884.93 139.67 873.09 143.60 863.34 150.85 C 851.74 128.31 826.54 116.17 801.59 121.08 C 776.65 126.00 757.99 146.79 755.89 172.02 C 729.05 180.46 712.40 207.11 716.67 234.81 C 720.93 262.51 744.85 282.97 772.99 283.00 L 931.87 283.00 C 960.17 283.05 984.23 262.42 988.38 234.55 C 992.53 206.67 975.51 179.98 948.41 171.85 L 948.38 171.74 Z" fill="url(#linearGradient-4)" fill-rule="nonzero" id="路径" node-id="63" stroke="none" target-height="166.88628" target-width="280.1316" target-x="712.39655" target-y="116.16701"></path><path d="M 904.00 605.00 L 899.15 669.00 L 863.00 658.52 Z" fill="#e4efff" fill-rule="nonzero" id="路径" node-id="64" stroke="none" target-height="64" target-width="41" target-x="863" target-y="605"></path><path d="M 903.82 605.00 L 934.00 661.39 L 899.00 669.00 Z" fill="#f3f8ff" fill-rule="nonzero" id="路径" node-id="65" stroke="none" target-height="64" target-width="35" target-x="899" target-y="605"></path><g node-id="177"><g node-id="178"><path d="M 461.06 335.70 C 467.30 334.03 473.71 337.75 475.39 344.02 C 476.86 349.51 474.21 355.13 469.34 357.56 L 473.66 373.67 L 469.14 374.88 L 464.83 358.77 C 459.39 359.10 454.29 355.56 452.82 350.07 C 451.14 343.80 454.83 337.37 461.06 335.70 Z" fill="url(#linearGradient-5)" fill-rule="nonzero" group-id="2,3" id="形状结合" node-id="68" stroke="none" target-height="40.853577" target-width="25.722412" target-x="451.13983" target-y="334.0271"></path><path d="M 585.06 419.22 C 596.81 463.09 563.89 510.02 511.53 524.05 C 459.18 538.08 407.20 513.89 395.45 470.03 C 383.69 426.16 416.61 379.23 468.97 365.20 C 521.33 351.17 573.30 375.36 585.06 419.22 Z" fill="url(#linearGradient-6)" fill-rule="nonzero" group-id="2,3" id="椭圆形" node-id="69" stroke="none" target-height="186.91211" target-width="213.117" target-x="383.69348" target-y="351.16895"></path><path d="M 698.36 444.80 C 708.44 482.40 629.69 536.17 522.48 564.90 C 415.27 593.63 320.19 586.43 310.11 548.83 C 300.04 511.24 378.78 457.47 486.00 428.74 C 593.21 400.01 688.29 407.20 698.36 444.80 Z" fill="url(#linearGradient-7)" fill-rule="nonzero" group-id="2,3" id="椭圆形" node-id="70" stroke="none" target-height="193.61417" target-width="408.3971" target-x="300.03894" target-y="400.01242"></path><path d="M 651.29 470.01 C 650.48 466.21 655.35 461.95 662.17 460.50 C 668.99 459.05 675.17 460.97 675.98 464.77 C 676.79 468.58 671.92 472.84 665.10 474.29 C 658.29 475.73 652.10 473.82 651.29 470.01 Z M 362.63 535.50 C 369.09 532.88 375.51 533.69 376.96 537.30 C 378.42 540.91 374.36 545.95 367.90 548.57 C 361.44 551.18 355.02 550.38 353.57 546.77 C 352.11 543.16 356.17 538.11 362.63 535.50 Z M 543.65 463.22 C 542.30 456.88 550.42 449.78 561.78 447.37 C 573.14 444.95 583.45 448.14 584.80 454.49 C 586.15 460.83 578.03 467.93 566.67 470.34 C 555.31 472.76 545.00 469.57 543.65 463.22 Z M 442.01 474.60 C 453.05 471.00 463.63 473.09 465.63 479.26 C 467.64 485.43 460.31 493.35 449.26 496.94 C 438.21 500.53 427.63 498.44 425.63 492.27 C 423.63 486.10 430.96 478.19 442.01 474.60 Z" fill="url(#linearGradient-8)" fill-rule="nonzero" group-id="2,3" id="形状结合" node-id="71" stroke="none" target-height="106.228516" target-width="324.67944" target-x="352.1106" target-y="444.95404"></path><path d="M 613.24 489.50 C 616.94 503.29 573.58 526.88 516.40 542.21 C 459.22 557.53 409.87 558.77 406.18 544.98 C 402.48 531.20 445.84 507.60 503.02 492.28 C 560.20 476.96 609.55 475.72 613.24 489.50 Z" fill="#ffffff" fill-rule="nonzero" group-id="2,3" id="椭圆形复制-6" node-id="72" stroke="none" target-height="83.05591" target-width="214.45349" target-x="402.48328" target-y="475.71545"></path><path d="M 439.12 524.73 L 369.47 730.91 C 492.93 731.56 613.34 705.16 730.71 651.68 C 731.32 651.64 679.06 597.24 573.93 488.48 L 504.75 507.08 L 439.12 524.73 Z" fill="url(#linearGradient-9)" fill-rule="nonzero" group-id="2,3" id="路径-2" node-id="73" stroke="none" target-height="243.087" target-width="361.8449" target-x="369.4748" target-y="488.47733"></path><g node-id="179"><path d="M 482.24 573.79 L 465.51 623.61 L 473.66 623.08 L 472.55 606.73 L 497.84 605.13 L 498.95 621.48 L 508.54 620.89 L 509.93 640.90 L 500.34 641.49 L 501.45 657.96 L 476.15 659.56 L 475.05 643.10 L 439.22 645.37 L 437.96 627.19 L 456.12 575.43 Z" fill="url(#linearGradient-10)" fill-rule="nonzero" group-id="2,3,4" id="路径" node-id="75" stroke="none" target-height="85.77197" target-width="71.96698" target-x="437.9639" target-y="573.7855"></path><path d="M 560.22 565.32 C 560.41 593.53 548.27 609.14 526.22 609.14 C 503.92 609.13 491.67 593.55 491.48 565.34 C 491.30 537.13 503.34 521.55 525.63 521.52 C 547.69 521.55 560.04 537.11 560.22 565.32 Z M 518.06 565.33 C 518.19 583.38 520.04 590.01 526.10 589.98 C 532.04 589.99 533.84 583.35 533.71 565.31 C 533.58 547.12 531.74 540.63 525.81 540.66 C 519.70 540.66 517.93 547.15 518.06 565.33 L 518.06 565.33 Z M 599.89 542.38 L 593.11 595.16 L 601.07 593.03 L 596.78 577.02 L 621.45 570.41 L 625.74 586.42 L 635.11 583.91 L 640.36 603.51 L 630.99 606.02 L 635.31 622.16 L 610.65 628.76 L 606.32 612.62 L 571.34 622.00 L 566.57 604.20 L 574.41 549.20 L 599.89 542.38 L 599.89 542.38 Z" fill="url(#linearGradient-11)" fill-rule="nonzero" group-id="2,3,4" id="形状" node-id="76" stroke="none" target-height="107.24567" target-width="149.05737" target-x="491.29816" target-y="521.519"></path></g></g></g></svg>